<svg xmlns="http://www.w3.org/2000/svg" viewBox="0 0 512 512" role="img" aria-label="Open hymn book">
  <defs>
    <linearGradient id="arch" x1="88" x2="424" y1="76" y2="452" gradientUnits="userSpaceOnUse">
      <stop stop-color="#38533f"/>
      <stop offset=".55" stop-color="#213426"/>
      <stop offset="1" stop-color="#17251c"/>
    </linearGradient>
    <linearGradient id="page" x1="132" x2="382" y1="181" y2="348" gradientUnits="userSpaceOnUse">
      <stop stop-color="#fff0bf"/>
      <stop offset=".54" stop-color="#f6d994"/>
      <stop offset="1" stop-color="#ffe9b1"/>
    </linearGradient>
    <linearGradient id="gold" x1="116" x2="396" y1="156" y2="380" gradientUnits="userSpaceOnUse">
      <stop stop-color="#ffe3a0"/>
      <stop offset="1" stop-color="#d69a43"/>
    </linearGradient>
    <filter id="softShadow" x="-20%" y="-20%" width="140%" height="150%">
      <feDropShadow dx="0" dy="18" stdDeviation="22" flood-color="#160b09" flood-opacity=".36"/>
    </filter>
  </defs>

  <path
    d="M84 446V238c0-98 74-174 172-174s172 76 172 174v208Z"
    fill="url(#arch)"
    filter="url(#softShadow)"
  />
  <path
    d="M112 428V240c0-82 62-148 144-148s144 66 144 148v188Z"
    fill="none"
    stroke="#f1c870"
    stroke-opacity=".42"
    stroke-width="10"
  />
  <path
    d="M151 178h210c22 0 40 18 40 40v121c0 22-18 40-40 40H151c-22 0-40-18-40-40V218c0-22 18-40 40-40Z"
    fill="#171315"
    stroke="url(#gold)"
    stroke-width="12"
  />
  <path
    d="M143 210c36-7 74-7 113 0v132c-38-12-76-12-113 0Z"
    fill="url(#page)"
  />
  <path
    d="M256 210c39-7 77-7 113 0v132c-37-12-75-12-113 0Z"
    fill="url(#page)"
  />
  <path d="M256 205v147" stroke="#b77a30" stroke-width="8" stroke-linecap="round"/>
  <path d="M234 177h44v82c0 10-8 18-18 18h-8c-10 0-18-8-18-18Z" fill="#a85149"/>
  <path d="M169 241h60M169 267h60M169 293h60M169 319h60M282 241h60M282 267h60M282 293h60M282 319h60" stroke="#70533c" stroke-width="7" stroke-linecap="round" opacity=".72"/>
  <path d="M256 104v-34M224 118l-18-30M288 118l18-30" stroke="#f3d88a" stroke-width="10" stroke-linecap="round" opacity=".84"/>
</svg>
